HIERARCHY
ROOT Hips
{
	OFFSET -0.001795 -0.223333 0.028219
	CHANNELS 6 Xposition Yposition Zposition Zrotation Yrotation Xrotation 
	JOINT LeftUpLeg
	{
		OFFSET 0.069520 -0.091406 -0.006815
		CHANNELS 3 Zrotation Yrotation Xrotation
		JOINT LeftLeg
		{
			OFFSET 0.034277 -0.375199 -0.004496
			CHANNELS 3 Zrotation Yrotation Xrotation
			JOINT LeftFoot
			{
				OFFSET -0.013596 -0.397961 -0.043693
				CHANNELS 3 Zrotation Yrotation Xrotation
				JOINT LeftToe
				{
					OFFSET 0.026358 -0.055791 0.119288
					CHANNELS 3 Zrotation Yrotation Xrotation
					End Site
					{
						OFFSET 0.000000 0.000000 0.000000
					}
				}
			}
		}
	}
	JOINT RightUpLeg
	{
		OFFSET -0.067670 -0.090522 -0.004320
		CHANNELS 3 Zrotation Yrotation Xrotation
		JOINT RightLeg
		{
			OFFSET -0.038290 -0.382569 -0.008850
			CHANNELS 3 Zrotation Yrotation Xrotation
			JOINT RightFoot
			{
				OFFSET 0.015774 -0.398415 -0.042312
				CHANNELS 3 Zrotation Yrotation Xrotation
				JOINT RightToe
				{
					OFFSET -0.025372 -0.048144 0.123348
					CHANNELS 3 Zrotation Yrotation Xrotation
					End Site
					{
						OFFSET 0.000000 0.000000 0.000000
					}
				}
			}
		}
	}
	JOINT Spine
	{
		OFFSET -0.002533 0.108963 -0.026696
		CHANNELS 3 Zrotation Yrotation Xrotation
		JOINT Spine1
		{
			OFFSET 0.005487 0.135180 0.001092
			CHANNELS 3 Zrotation Yrotation Xrotation
			JOINT Spine2
			{
				OFFSET 0.001457 0.052922 0.025425
				CHANNELS 3 Zrotation Yrotation Xrotation
				JOINT Neck
				{
					OFFSET -0.002778 0.213870 -0.042857
					CHANNELS 3 Zrotation Yrotation Xrotation
					JOINT Head
					{
						OFFSET 0.005152 0.064970 0.051349
						CHANNELS 3 Zrotation Yrotation Xrotation
						End Site
						{
							OFFSET 0.000000 0.000000 0.000000
						}
					}
				}
				JOINT LeftShoulder
				{
					OFFSET 0.078845 0.121749 -0.034090
					CHANNELS 3 Zrotation Yrotation Xrotation
					JOINT LeftArm
					{
						OFFSET 0.090977 0.030469 -0.008868
						CHANNELS 3 Zrotation Yrotation Xrotation
						JOINT LeftForeArm
						{
							OFFSET 0.259612 -0.012772 -0.027456
							CHANNELS 3 Zrotation Yrotation Xrotation
							JOINT LeftHand
							{
								OFFSET 0.249234 0.008986 -0.001171
								CHANNELS 3 Zrotation Yrotation Xrotation
								End Site
								{
									OFFSET 0.000000 0.000000 0.000000
								}
							}
						}
					}
				}
				JOINT RightShoulder
				{
					OFFSET -0.081759 0.118833 -0.038615
					CHANNELS 3 Zrotation Yrotation Xrotation
					JOINT RightArm
					{
						OFFSET -0.096012 0.032551 -0.009143
						CHANNELS 3 Zrotation Yrotation Xrotation
						JOINT RightForeArm
						{
							OFFSET -0.253742 -0.013329 -0.021401
							CHANNELS 3 Zrotation Yrotation Xrotation
							JOINT RightHand
							{
								OFFSET -0.255298 0.007772 -0.005559
								CHANNELS 3 Zrotation Yrotation Xrotation
								End Site
								{
									OFFSET 0.000000 0.000000 0.000000
								}
							}
						}
					}
				}
			}
		}
	}
}
MOTION
Frames: 9
Frame Time: 0.050000
0.000000 0.945951 0.000000 -0.477405 -9.305304 0.287378 2.164888 0.477236 5.532194 -1.652713 0.280959 -3.626510 -1.685635 -0.579851 8.137949 0.000000 0.000000 0.000000 -5.567506 0.128891 3.240166 1.515813 -0.103062 0.916019 -1.851940 -9.686993 12.361508 0.000000 0.000000 0.000000 5.530766 -0.427042 4.477989 -5.887339 2.183866 -12.100202 -1.587729 5.516112 15.319821 5.284844 -1.851764 -19.701967 0.000000 0.000000 0.000000 -16.196032 -6.887454 2.311891 -10.874120 -2.605125 -1.391088 18.061781 -5.891460 -0.666264 0.000000 0.000000 0.000000 20.564704 -3.520115 -3.511020 14.399744 -3.196590 -1.911461 -18.793609 12.628765 -1.330533 0.000000 0.000000 0.000000 
0.001521 0.944892 -0.000039 -0.649615 -10.335067 0.045980 1.951695 0.615024 6.765355 -1.353647 0.292110 -5.075558 -1.253178 0.103002 8.080499 0.000000 0.000000 0.000000 -5.693536 0.146445 3.489004 1.638890 -0.127376 0.322318 -1.457224 -9.212098 12.718926 0.000000 0.000000 0.000000 6.018234 -0.481038 4.973868 -6.284660 2.356728 -11.062850 -2.027994 7.068961 13.611741 4.632107 -1.125610 -20.852328 0.000000 0.000000 0.000000 -14.666727 -7.098340 2.146263 -9.527160 -2.832319 -1.157563 16.584619 -4.174976 -0.429178 0.000000 0.000000 0.000000 20.021070 -5.692717 -4.406024 13.822939 -4.195509 -1.900314 -17.742619 12.937901 -1.234542 0.000000 0.000000 0.000000 
0.003291 0.943485 -0.000916 -0.781585 -10.723044 -0.082051 1.942097 0.602406 6.571747 -1.373498 0.278498 -4.464402 -0.928820 0.445078 7.351571 0.000000 0.000000 0.000000 -6.255673 0.215234 2.966271 2.345914 -0.171640 0.908682 -1.013175 -8.620583 13.149354 0.000000 0.000000 0.000000 6.922259 -0.558671 5.466889 -6.496759 2.286706 -14.133254 -2.131751 8.525957 16.845958 6.350853 -2.073288 -20.979087 0.000000 0.000000 0.000000 -12.656837 -7.164084 2.144435 -9.220100 -3.311532 -1.149106 16.850701 -2.297403 -0.255752 0.000000 0.000000 0.000000 19.414635 -5.991662 -4.153305 13.127026 -4.399282 -1.928150 -18.260981 10.171964 -0.902665 0.000000 0.000000 0.000000 
0.005452 0.942848 -0.002799 -0.667955 -11.722330 -0.501523 1.146310 0.720168 7.202869 -0.621774 0.223034 -4.864547 -0.431619 1.252838 7.227776 0.000000 0.000000 0.000000 -6.760239 0.280692 2.650990 2.480870 -0.157936 1.767973 -0.431484 -7.493961 12.554159 0.000000 0.000000 0.000000 6.731862 -0.551702 5.632093 -6.329224 2.219295 -13.830661 -2.078128 9.336421 17.046386 5.772520 -1.564032 -21.923480 0.000000 0.000000 0.000000 -12.857209 -7.545248 2.284073 -7.679750 -2.919644 -0.982173 17.886216 -0.335677 -0.050486 0.000000 0.000000 0.000000 19.756794 -5.203667 -3.683237 11.472734 -5.661363 -1.722812 -20.112509 10.329268 -1.066029 0.000000 0.000000 0.000000 
0.008174 0.942756 -0.005849 -0.472749 -12.389795 -1.016258 0.471899 0.759768 7.159325 -0.197554 0.158128 -4.151809 -0.051677 1.857637 7.031037 0.000000 0.000000 0.000000 -7.505862 0.359362 2.266895 2.510084 -0.137132 2.538258 0.710588 -5.707798 12.968489 0.000000 0.000000 0.000000 6.569150 -0.632566 6.821399 -6.217443 2.153519 -14.121621 -2.021302 9.839593 16.763705 6.684046 -2.100269 -21.835197 0.000000 0.000000 0.000000 -12.943100 -8.034011 2.484319 -6.671927 -2.355037 -0.864874 17.362338 -0.089395 -0.023080 0.000000 0.000000 0.000000 20.010745 -5.044201 -3.599390 9.633179 -4.604788 -1.372268 -20.828538 8.742829 -0.882322 0.000000 0.000000 0.000000 
0.011436 0.942327 -0.009756 -0.413154 -12.855405 -1.232249 -0.110799 0.746942 6.765847 0.313407 0.081631 -3.499694 0.284454 2.372889 6.702610 0.000000 0.000000 0.000000 -7.654118 0.385773 1.816986 2.298717 -0.102345 2.936903 0.884821 -5.507600 13.067024 0.000000 0.000000 0.000000 6.440451 -0.676318 7.522103 -6.399090 2.173568 -14.895562 -1.672726 10.228422 17.901059 7.565698 -2.569576 -22.418303 0.000000 0.000000 0.000000 -12.918803 -8.678372 2.817742 -6.099500 -2.289967 -0.812607 17.939993 1.430329 0.155752 0.000000 0.000000 0.000000 19.649013 -4.218253 -3.054483 8.586286 -4.258727 -1.211024 -21.687398 7.440631 -0.736081 0.000000 0.000000 0.000000 
0.014782 0.941931 -0.014262 -0.368816 -13.387791 -1.219892 -0.665088 0.730542 6.387129 0.795926 0.026050 -3.382036 0.607798 2.911884 6.569754 0.000000 0.000000 0.000000 -7.533663 0.397869 1.281123 1.785752 -0.025699 3.552582 0.846377 -5.117139 11.871858 0.000000 0.000000 0.000000 6.330938 -0.718363 8.190807 -6.340989 2.166046 -14.235702 -1.491897 10.372943 17.167227 8.250514 -2.967737 -22.487202 0.000000 0.000000 0.000000 -12.907182 -8.796570 2.874860 -6.239674 -1.546620 -0.819819 17.747414 1.289899 0.142236 0.000000 0.000000 0.000000 19.471810 -3.462435 -2.671534 7.233093 -3.620098 -0.966415 -22.103107 6.597406 -0.627288 0.000000 0.000000 0.000000 
0.017906 0.940939 -0.018501 -0.399040 -13.891013 -1.220485 -0.883953 0.614490 5.361948 0.839191 -0.037380 -2.009127 1.013974 3.514203 5.916570 0.000000 0.000000 0.000000 -7.008154 0.387709 0.390814 0.863397 0.142331 4.978694 0.485195 -5.109760 10.276533 0.000000 0.000000 0.000000 6.108933 -0.736977 8.701991 -6.150990 2.175255 -12.194142 -1.334647 10.372950 15.638716 9.928427 -3.883524 -22.803571 0.000000 0.000000 0.000000 -12.730775 -8.538898 2.739247 -7.380614 -0.888130 -0.945240 17.944291 1.335972 0.157415 0.000000 0.000000 0.000000 19.054030 -2.647758 -2.276896 6.851284 -2.681033 -0.879090 -22.756615 6.139662 -0.570733 0.000000 0.000000 0.000000 
0.019931 0.939894 -0.022068 -0.220948 -14.914014 -1.487642 -1.663858 0.551554 4.643912 1.494179 -0.177965 -0.583283 1.661048 4.616064 5.421609 0.000000 0.000000 0.000000 -6.989186 0.414520 -0.130732 0.382065 0.297559 6.605321 0.414707 -3.996799 7.658518 0.000000 0.000000 0.000000 5.819682 -0.748994 9.370911 -6.379084 2.278657 -11.371482 -0.838276 10.444480 15.391338 10.120131 -3.986321 -23.182448 0.000000 0.000000 0.000000 -13.196814 -7.862368 2.496982 -8.697142 -0.474239 -1.127468 18.506935 0.839974 0.115810 0.000000 0.000000 0.000000 18.528166 -2.393688 -2.228983 7.329788 -1.352057 -0.928255 -24.183276 7.212058 -0.828437 0.000000 0.000000 0.000000 
